# xmcd CD database file
#
# Track frame offsets:
#	225
#	23087
#	35778
#	57757
#	88836
#	104142
#	138188
#	149231
#	193631
#
# Disc length: 2930 seconds
#
# Revision: 0
# Processed by: cddbd v1.5.2PL0 Copyright (c) Steve Scherf et al.
# Submitted via: CDex 1.51
#
DISCID=890b6f09
DTITLE=Paul Rose Band - Half Alive
DYEAR=1900
DGENRE=Blues
TTITLE0=01 All Along The Watchtower
TTITLE1=02 Rise and Shine
TTITLE2=03 Rollin´& Tumblin´
TTITLE3=04 Touch Wood 
TTITLE4=05 Change
TTITLE5=06 Red House
TTITLE6=07 Cajun
TTITLE7=08 Hey Joe
TTITLE8=09 Con Trick
EXTD=
EXTT0=
EXTT1=
EXTT2=
EXTT3=
EXTT4=
EXTT5=
EXTT6=
EXTT7=
EXTT8=
PLAYORDER=
